<svg width="600" height="300" viewBox="0 0 600 300" fill="none" xmlns="http://www.w3.org/2000/svg">
<g clip-path="url(#clip0_245_191)">
<rect width="600" height="300" fill="#0F7EBD"/>
<mask id="mask0_245_191" style="mask-type:alpha" maskUnits="userSpaceOnUse" x="0" y="0" width="600" height="300">
<rect width="600" height="300" fill="#D9D9D9"/>
</mask>
<g mask="url(#mask0_245_191)">
<rect x="143.371" y="-125" width="182.069" height="535.089" transform="rotate(18.4532 143.371 -125)" fill="#0A4D72"/>
<rect x="452.45" y="-111.37" width="182.069" height="535.089" transform="rotate(18.4532 452.45 -111.37)" fill="#0A4D72"/>
</g>
<g filter="url(#filter0_d_245_191)">
<path fill-rule="evenodd" clip-rule="evenodd" d="M171.385 126.186C195.503 126.186 215.051 145.844 215.051 170.093C215.051 194.342 195.503 214 171.385 214H75.6658C51.5485 214 32 194.342 32 170.093C32 145.844 51.5485 126.186 75.6658 126.186H80.0127C81.8925 103.678 100.657 86 123.526 86C146.395 86 165.159 103.678 167.038 126.186H171.385Z" fill="white"/>
</g>
<g filter="url(#filter1_d_245_191)">
<path d="M297.595 194.25C289.678 194.25 282.761 193.042 276.845 190.625C270.928 188.125 266.261 184.375 262.845 179.375C259.511 174.375 257.678 168.042 257.345 160.375C257.261 156.958 257.22 153.292 257.22 149.375C257.22 145.458 257.261 141.708 257.345 138.125C257.678 130.625 259.553 124.375 262.97 119.375C266.47 114.292 271.178 110.5 277.095 108C283.095 105.5 289.928 104.25 297.595 104.25C303.095 104.25 308.22 104.917 312.97 106.25C317.803 107.5 322.095 109.458 325.845 112.125C329.595 114.708 332.553 117.958 334.72 121.875C336.886 125.708 338.011 130.208 338.095 135.375C338.095 136.125 337.803 136.75 337.22 137.25C336.72 137.75 336.095 138 335.345 138H314.22C312.97 138 312.053 137.75 311.47 137.25C310.886 136.75 310.386 135.875 309.97 134.625C308.886 131.042 307.303 128.625 305.22 127.375C303.136 126.125 300.595 125.5 297.595 125.5C293.928 125.5 291.011 126.5 288.845 128.5C286.678 130.417 285.511 133.833 285.345 138.75C285.095 145.583 285.095 152.583 285.345 159.75C285.511 164.667 286.678 168.125 288.845 170.125C291.011 172.042 293.928 173 297.595 173C300.595 173 303.136 172.333 305.22 171C307.386 169.667 308.97 167.292 309.97 163.875C310.303 162.542 310.761 161.667 311.345 161.25C312.011 160.75 312.97 160.5 314.22 160.5H335.345C336.095 160.5 336.72 160.75 337.22 161.25C337.803 161.75 338.095 162.375 338.095 163.125C338.011 168.292 336.886 172.833 334.72 176.75C332.553 180.583 329.595 183.833 325.845 186.5C322.095 189.083 317.803 191.042 312.97 192.375C308.22 193.625 303.095 194.25 297.595 194.25ZM351.566 193C350.65 193 349.858 192.708 349.191 192.125C348.608 191.458 348.316 190.667 348.316 189.75V107.5C348.316 106.583 348.608 105.833 349.191 105.25C349.858 104.583 350.65 104.25 351.566 104.25H371.816C372.65 104.25 373.4 104.583 374.066 105.25C374.733 105.833 375.066 106.583 375.066 107.5V134.875C377.233 132.375 379.941 130.417 383.191 129C386.525 127.5 390.275 126.75 394.441 126.75C398.941 126.75 403.066 127.792 406.816 129.875C410.65 131.958 413.691 135.083 415.941 139.25C418.275 143.417 419.441 148.667 419.441 155V189.75C419.441 190.667 419.108 191.458 418.441 192.125C417.775 192.708 417.025 193 416.191 193H395.816C394.9 193 394.108 192.708 393.441 192.125C392.858 191.458 392.566 190.667 392.566 189.75V155.875C392.566 152.792 391.816 150.417 390.316 148.75C388.816 147.083 386.691 146.25 383.941 146.25C381.191 146.25 379.025 147.083 377.441 148.75C375.858 150.417 375.066 152.792 375.066 155.875V189.75C375.066 190.667 374.733 191.458 374.066 192.125C373.4 192.708 372.65 193 371.816 193H351.566ZM451.815 194.25C447.232 194.25 443.107 193.375 439.44 191.625C435.857 189.875 433.024 187.542 430.94 184.625C428.94 181.625 427.94 178.292 427.94 174.625C427.94 168.625 430.357 163.917 435.19 160.5C440.107 157 446.649 154.583 454.815 153.25L469.19 151V150.125C469.19 147.542 468.774 145.625 467.94 144.375C467.19 143.042 465.565 142.375 463.065 142.375C461.315 142.375 459.899 142.708 458.815 143.375C457.732 144.042 456.732 145 455.815 146.25C454.982 147.167 453.899 147.625 452.565 147.625H434.94C434.024 147.625 433.315 147.375 432.815 146.875C432.315 146.375 432.107 145.708 432.19 144.875C432.274 143.375 432.899 141.625 434.065 139.625C435.232 137.542 437.024 135.542 439.44 133.625C441.94 131.625 445.149 130 449.065 128.75C452.982 127.417 457.69 126.75 463.19 126.75C468.774 126.75 473.565 127.375 477.565 128.625C481.565 129.875 484.857 131.625 487.44 133.875C490.024 136.125 491.94 138.875 493.19 142.125C494.44 145.292 495.065 148.833 495.065 152.75V189.75C495.065 190.667 494.732 191.458 494.065 192.125C493.482 192.708 492.732 193 491.815 193H473.565C472.732 193 471.982 192.708 471.315 192.125C470.649 191.458 470.315 190.667 470.315 189.75V185.75C469.232 187.417 467.774 188.875 465.94 190.125C464.19 191.375 462.107 192.375 459.69 193.125C457.357 193.875 454.732 194.25 451.815 194.25ZM459.065 177.875C461.149 177.875 462.94 177.458 464.44 176.625C466.024 175.708 467.274 174.333 468.19 172.5C469.107 170.667 469.565 168.375 469.565 165.625V164.75L460.565 166.5C457.482 167.083 455.315 167.958 454.065 169.125C452.815 170.208 452.19 171.417 452.19 172.75C452.19 173.75 452.482 174.625 453.065 175.375C453.649 176.125 454.44 176.75 455.44 177.25C456.524 177.667 457.732 177.875 459.065 177.875ZM543.758 193C538.091 193 533.091 192.167 528.758 190.5C524.508 188.833 521.174 186.125 518.758 182.375C516.424 178.542 515.258 173.5 515.258 167.25V147.125H505.383C504.466 147.125 503.674 146.833 503.008 146.25C502.424 145.583 502.133 144.792 502.133 143.875V131.25C502.133 130.333 502.424 129.583 503.008 129C503.674 128.333 504.466 128 505.383 128H515.258V107.5C515.258 106.583 515.549 105.833 516.133 105.25C516.799 104.583 517.591 104.25 518.508 104.25H536.633C537.549 104.25 538.299 104.583 538.883 105.25C539.549 105.833 539.883 106.583 539.883 107.5V128H555.633C556.549 128 557.299 128.333 557.883 129C558.549 129.583 558.883 130.333 558.883 131.25V143.875C558.883 144.792 558.549 145.583 557.883 146.25C557.299 146.833 556.549 147.125 555.633 147.125H539.883V165.125C539.883 167.542 540.383 169.458 541.383 170.875C542.383 172.208 543.966 172.875 546.133 172.875H556.633C557.549 172.875 558.299 173.208 558.883 173.875C559.549 174.458 559.883 175.208 559.883 176.125V189.75C559.883 190.667 559.549 191.458 558.883 192.125C558.299 192.708 557.549 193 556.633 193H543.758Z" fill="white"/>
</g>
<path d="M108.885 141.844C113.871 138.282 119.955 136.596 126.063 137.082C132.171 137.569 137.912 140.197 142.271 144.503C146.63 148.809 149.329 154.516 149.891 160.617C150.452 166.719 148.839 172.824 145.339 177.853C141.838 182.882 136.673 186.514 130.756 188.106C124.885 189.686 118.648 189.156 113.128 186.615C112.743 186.475 112.329 186.438 111.925 186.506L103.996 188.826C103.978 188.832 103.96 188.837 103.941 188.842C103.163 189.049 102.344 189.052 101.564 188.854C100.784 188.656 100.067 188.262 99.4815 187.709C98.8963 187.156 98.4611 186.462 98.2189 185.694C97.9769 184.926 97.9346 184.109 98.0966 183.321L98.1636 183.067L100.629 175.452C100.713 175.017 100.677 174.569 100.518 174.155C97.9107 168.667 97.3043 162.439 98.8122 156.55C100.332 150.614 103.9 145.406 108.885 141.844ZM125.689 141.793C120.692 141.395 115.714 142.775 111.634 145.69C107.555 148.604 104.635 152.866 103.392 157.722C102.226 162.275 102.604 167.077 104.449 171.38L104.837 172.235L104.904 172.391C105.425 173.706 105.542 175.147 105.238 176.528C105.222 176.602 105.202 176.675 105.178 176.747L102.743 184.265L110.736 181.929C110.803 181.91 110.873 181.894 110.942 181.881C112.082 181.655 113.259 181.71 114.367 182.045L114.838 182.206L114.997 182.273C119.54 184.394 124.686 184.843 129.528 183.54C134.369 182.237 138.595 179.267 141.459 175.152C144.323 171.037 145.641 166.043 145.182 161.051C144.723 156.059 142.516 151.389 138.95 147.866C135.383 144.343 130.687 142.191 125.689 141.793Z" fill="#0F7EBD"/>
</g>
<defs>
<filter id="filter0_d_245_191" x="-18" y="36" width="283.051" height="228" filterUnits="userSpaceOnUse" color-interpolation-filters="sRGB">
<feFlood flood-opacity="0" result="BackgroundImageFix"/>
<feColorMatrix in="SourceAlpha" type="matrix" values="0 0 0 0 0 0 0 0 0 0 0 0 0 0 0 0 0 0 127 0" result="hardAlpha"/>
<feOffset/>
<feGaussianBlur stdDeviation="25"/>
<feComposite in2="hardAlpha" operator="out"/>
<feColorMatrix type="matrix" values="0 0 0 0 0 0 0 0 0 0 0 0 0 0 0 0 0 0 1 0"/>
<feBlend mode="normal" in2="BackgroundImageFix" result="effect1_dropShadow_245_191"/>
<feBlend mode="normal" in="SourceGraphic" in2="effect1_dropShadow_245_191" result="shape"/>
</filter>
<filter id="filter1_d_245_191" x="247.22" y="104.25" width="322.663" height="110" filterUnits="userSpaceOnUse" color-interpolation-filters="sRGB">
<feFlood flood-opacity="0" result="BackgroundImageFix"/>
<feColorMatrix in="SourceAlpha" type="matrix" values="0 0 0 0 0 0 0 0 0 0 0 0 0 0 0 0 0 0 127 0" result="hardAlpha"/>
<feOffset dy="10"/>
<feGaussianBlur stdDeviation="5"/>
<feComposite in2="hardAlpha" operator="out"/>
<feColorMatrix type="matrix" values="0 0 0 0 0 0 0 0 0 0 0 0 0 0 0 0 0 0 0.5 0"/>
<feBlend mode="normal" in2="BackgroundImageFix" result="effect1_dropShadow_245_191"/>
<feBlend mode="normal" in="SourceGraphic" in2="effect1_dropShadow_245_191" result="shape"/>
</filter>
<clipPath id="clip0_245_191">
<rect width="600" height="300" fill="white"/>
</clipPath>
</defs>
</svg>
