<svg width="600" height="300" viewBox="0 0 600 300" fill="none" xmlns="http://www.w3.org/2000/svg">
<g clip-path="url(#clip0_247_184)">
<path d="M0 300V0H600V300H0Z" fill="#007E5B"/>
<path fill-rule="evenodd" clip-rule="evenodd" d="M477.993 32.4055C473.667 32.4055 470.16 28.8988 470.16 24.5731C470.16 20.2474 473.667 16.7407 477.993 16.7407C482.318 16.7407 485.825 20.2474 485.825 24.5731C485.825 28.8988 482.318 32.4055 477.993 32.4055ZM477.993 30.0558C474.965 30.0558 472.51 27.6011 472.51 24.5731C472.51 21.5451 474.965 19.0904 477.993 19.0904C481.021 19.0904 483.475 21.5451 483.475 24.5731C483.475 27.6011 481.021 30.0558 477.993 30.0558Z" fill="#0CA77C" stroke="#0CA77C" stroke-width="2.5" stroke-miterlimit="10"/>
<path fill-rule="evenodd" clip-rule="evenodd" d="M427.423 33.7964C422.331 33.7964 418.203 29.6687 418.203 24.5769C418.203 19.4851 422.331 15.3574 427.423 15.3574C432.515 15.3574 436.642 19.4851 436.642 24.5769C436.642 29.6687 432.515 33.7964 427.423 33.7964ZM427.423 31.0306C423.859 31.0306 420.969 28.1412 420.969 24.5769C420.969 21.0127 423.858 18.1233 427.423 18.1233C430.987 18.1233 433.876 21.0127 433.876 24.5769C433.876 28.1412 430.987 31.0306 427.423 31.0306Z" fill="#0CA77C" stroke="#0CA77C" stroke-width="2.5" stroke-miterlimit="10"/>
<path fill-rule="evenodd" clip-rule="evenodd" d="M376.853 35.1796C370.995 35.1796 366.246 30.4308 366.246 24.5729C366.246 18.7151 370.995 13.9663 376.853 13.9663C382.711 13.9663 387.459 18.7151 387.459 24.573C387.459 30.4308 382.711 35.1796 376.853 35.1796ZM376.853 31.9976C372.752 31.9976 369.428 28.6735 369.428 24.5729C369.428 20.4724 372.752 17.1483 376.853 17.1483C380.953 17.1483 384.277 20.4724 384.277 24.5729C384.277 28.6735 380.953 31.9976 376.853 31.9976Z" fill="#0CA77C" stroke="#0CA77C" stroke-width="2.5" stroke-miterlimit="10"/>
<path fill-rule="evenodd" clip-rule="evenodd" d="M326.283 36.5706C319.659 36.5706 314.289 31.2007 314.289 24.5768C314.289 17.9528 319.659 12.583 326.283 12.583C332.907 12.583 338.276 17.9528 338.276 24.5768C338.276 31.2007 332.907 36.5706 326.283 36.5706ZM326.283 32.9724C321.646 32.9724 317.887 29.2136 317.887 24.5768C317.887 19.94 321.646 16.1811 326.283 16.1811C330.919 16.1811 334.678 19.94 334.678 24.5768C334.678 29.2136 330.92 32.9724 326.283 32.9724Z" fill="#0CA77C" stroke="#0CA77C" stroke-width="2.5" stroke-miterlimit="10"/>
<path fill-rule="evenodd" clip-rule="evenodd" d="M174.573 35.1796C168.715 35.1796 163.966 30.4308 163.966 24.5729C163.966 18.7151 168.715 13.9663 174.573 13.9663C180.43 13.9663 185.179 18.7151 185.179 24.573C185.179 30.4308 180.43 35.1796 174.573 35.1796ZM174.573 31.9976C170.472 31.9976 167.148 28.6735 167.148 24.5729C167.148 20.4724 170.472 17.1483 174.573 17.1483C178.673 17.1483 181.997 20.4724 181.997 24.5729C181.997 28.6735 178.673 31.9976 174.573 31.9976Z" fill="#0CA77C" stroke="#0CA77C" stroke-width="2.5" stroke-miterlimit="10"/>
<path fill-rule="evenodd" clip-rule="evenodd" d="M477.993 85.7533C472.135 85.7533 467.386 81.0045 467.386 75.1467C467.386 69.2888 472.135 64.54 477.993 64.54C483.851 64.54 488.6 69.2888 488.6 75.1467C488.6 81.0045 483.851 85.7533 477.993 85.7533ZM477.993 82.5713C473.892 82.5713 470.568 79.2472 470.568 75.1467C470.568 71.0461 473.892 67.722 477.993 67.722C482.093 67.722 485.418 71.0461 485.418 75.1467C485.418 79.2472 482.093 82.5713 477.993 82.5713Z" fill="#0CA77C" stroke="#0CA77C" stroke-width="2.5" stroke-miterlimit="10"/>
<path fill-rule="evenodd" clip-rule="evenodd" d="M275.713 94.0762C265.258 94.0762 256.783 85.6011 256.783 75.1467C256.783 64.6923 265.258 56.2173 275.713 56.2173C286.167 56.2173 294.642 64.6923 294.642 75.1467C294.642 85.6011 286.167 94.0762 275.713 94.0762ZM275.713 88.3974C268.395 88.3974 262.462 82.4649 262.462 75.1467C262.462 67.8286 268.395 61.8961 275.713 61.8961C283.031 61.8961 288.963 67.8286 288.963 75.1467C288.963 82.4649 283.031 88.3974 275.713 88.3974Z" fill="#0CA77C" stroke="#0CA77C" stroke-width="2.5" stroke-miterlimit="10"/>
<path fill-rule="evenodd" clip-rule="evenodd" d="M225.139 94.0762C214.685 94.0762 206.209 85.6011 206.209 75.1467C206.209 64.6923 214.685 56.2173 225.139 56.2173C235.593 56.2173 244.068 64.6923 244.068 75.1467C244.068 85.6011 235.593 94.0762 225.139 94.0762ZM225.139 88.3974C217.821 88.3974 211.888 82.4649 211.888 75.1467C211.888 67.8286 217.821 61.8961 225.139 61.8961C232.457 61.8961 238.39 67.8286 238.39 75.1467C238.39 82.4649 232.457 88.3974 225.139 88.3974Z" fill="#0CA77C" stroke="#0CA77C" stroke-width="2.5" stroke-miterlimit="10"/>
<path fill-rule="evenodd" clip-rule="evenodd" d="M123.999 88.5275C116.609 88.5275 110.618 82.5366 110.618 75.1465C110.618 67.7565 116.609 61.7656 123.999 61.7656C131.389 61.7656 137.38 67.7565 137.38 75.1465C137.38 82.5366 131.389 88.5275 123.999 88.5275ZM123.999 84.5132C118.826 84.5132 114.632 80.3196 114.632 75.1465C114.632 69.9735 118.826 65.7799 123.999 65.7799C129.172 65.7799 133.365 69.9735 133.365 75.1465C133.365 80.3196 129.172 84.5132 123.999 84.5132Z" fill="#0CA77C" stroke="#0CA77C" stroke-width="2.5" stroke-miterlimit="10"/>
<path fill-rule="evenodd" clip-rule="evenodd" d="M73.4324 85.7533C67.5746 85.7533 62.8258 81.0045 62.8258 75.1467C62.8258 69.2888 67.5746 64.54 73.4325 64.54C79.2903 64.54 84.0391 69.2888 84.0391 75.1467C84.0391 81.0045 79.2903 85.7533 73.4324 85.7533ZM73.4324 82.5713C69.3319 82.5713 66.0078 79.2472 66.0078 75.1467C66.0078 71.0461 69.3319 67.722 73.4324 67.722C77.533 67.722 80.8571 71.0461 80.8571 75.1467C80.8571 79.2472 77.533 82.5713 73.4324 82.5713Z" fill="#0CA77C" stroke="#0CA77C" stroke-width="2.5" stroke-miterlimit="10"/>
<path fill-rule="evenodd" clip-rule="evenodd" d="M22.8587 82.9792C18.5331 82.9792 15.0264 79.4725 15.0264 75.1468C15.0264 70.8211 18.5331 67.3145 22.8587 67.3145C27.1844 67.3145 30.6911 70.8211 30.6911 75.1468C30.6911 79.4725 27.1844 82.9792 22.8587 82.9792ZM22.8587 80.6295C19.8307 80.6295 17.3761 78.1748 17.3761 75.1468C17.3761 72.1188 19.8307 69.6642 22.8587 69.6642C25.8867 69.6642 28.3414 72.1188 28.3414 75.1468C28.3414 78.1748 25.8867 80.6295 22.8587 80.6295Z" fill="#0CA77C" stroke="#0CA77C" stroke-width="2.5" stroke-miterlimit="10"/>
<path fill-rule="evenodd" clip-rule="evenodd" d="M528.57 134.812C523.543 134.812 519.468 130.736 519.468 125.709C519.468 120.682 523.543 116.607 528.57 116.607C533.597 116.607 537.673 120.682 537.673 125.709C537.673 130.736 533.597 134.812 528.57 134.812ZM528.57 132.081C525.051 132.081 522.198 129.228 522.198 125.709C522.198 122.19 525.051 119.338 528.57 119.338C532.089 119.338 534.942 122.19 534.942 125.709C534.942 129.228 532.089 132.081 528.57 132.081Z" fill="#0CA77C" stroke="#0CA77C" stroke-width="2.5" stroke-miterlimit="10"/>
<path fill-rule="evenodd" clip-rule="evenodd" d="M376.856 146.949C365.127 146.949 355.617 137.439 355.617 125.71C355.617 113.98 365.127 104.471 376.856 104.471C388.586 104.471 398.095 113.98 398.095 125.71C398.095 137.439 388.586 146.949 376.856 146.949ZM376.856 140.577C368.645 140.577 361.989 133.921 361.989 125.71C361.989 117.499 368.645 110.842 376.856 110.842C385.067 110.842 391.724 117.499 391.724 125.71C391.724 133.921 385.067 140.577 376.856 140.577Z" fill="#0CA77C" stroke="#0CA77C" stroke-width="2.5" stroke-miterlimit="10"/>
<path fill-rule="evenodd" clip-rule="evenodd" d="M326.283 151.004C312.317 151.004 300.996 139.682 300.996 125.717C300.996 111.751 312.317 100.43 326.283 100.43C340.248 100.43 351.57 111.751 351.57 125.717C351.57 139.682 340.248 151.004 326.283 151.004ZM326.283 143.418C316.507 143.418 308.582 135.493 308.582 125.717C308.582 115.941 316.507 108.016 326.283 108.016C336.059 108.016 343.983 115.941 343.983 125.717C343.983 135.493 336.059 143.418 326.283 143.418Z" fill="#0CA77C" stroke="#0CA77C" stroke-width="2.5" stroke-miterlimit="10"/>
<path fill-rule="evenodd" clip-rule="evenodd" d="M275.716 151.004C261.751 151.004 250.429 139.682 250.429 125.717C250.429 111.751 261.751 100.43 275.716 100.43C289.682 100.43 301.003 111.751 301.003 125.717C301.003 139.682 289.682 151.004 275.716 151.004ZM275.716 143.418C265.94 143.418 258.016 135.493 258.016 125.717C258.016 115.941 265.94 108.016 275.716 108.016C285.492 108.016 293.417 115.941 293.417 125.717C293.417 135.493 285.492 143.418 275.716 143.418Z" fill="#0CA77C" stroke="#0CA77C" stroke-width="2.5" stroke-miterlimit="10"/>
<path fill-rule="evenodd" clip-rule="evenodd" d="M225.143 151.004C211.177 151.004 199.856 139.682 199.856 125.717C199.856 111.751 211.177 100.43 225.143 100.43C239.108 100.43 250.429 111.751 250.429 125.717C250.429 139.682 239.108 151.004 225.143 151.004ZM225.143 143.418C215.367 143.418 207.442 135.493 207.442 125.717C207.442 115.941 215.367 108.016 225.143 108.016C234.918 108.016 242.843 115.941 242.843 125.717C242.843 135.493 234.918 143.418 225.143 143.418Z" fill="#0CA77C" stroke="#0CA77C" stroke-width="2.5" stroke-miterlimit="10"/>
<path fill-rule="evenodd" clip-rule="evenodd" d="M174.576 146.949C162.846 146.949 153.337 137.439 153.337 125.71C153.337 113.98 162.846 104.471 174.576 104.471C186.306 104.471 195.815 113.98 195.815 125.71C195.815 137.439 186.306 146.949 174.576 146.949ZM174.576 140.577C166.365 140.577 159.709 133.921 159.709 125.71C159.709 117.499 166.365 110.842 174.576 110.842C182.787 110.842 189.443 117.499 189.443 125.71C189.443 133.921 182.787 140.577 174.576 140.577Z" fill="#0CA77C" stroke="#0CA77C" stroke-width="2.5" stroke-miterlimit="10"/>
<path fill-rule="evenodd" clip-rule="evenodd" d="M123.999 142.908C114.503 142.908 106.804 135.209 106.804 125.713C106.804 116.217 114.503 108.519 123.999 108.519C133.495 108.519 141.193 116.217 141.193 125.713C141.193 135.209 133.495 142.908 123.999 142.908ZM123.999 137.749C117.351 137.749 111.963 132.361 111.963 125.713C111.963 119.066 117.351 113.677 123.999 113.677C130.646 113.677 136.035 119.066 136.035 125.713C136.035 132.361 130.646 137.749 123.999 137.749Z" fill="#0CA77C" stroke="#0CA77C" stroke-width="2.5" stroke-miterlimit="10"/>
<path fill-rule="evenodd" clip-rule="evenodd" d="M478 189.426C470.74 189.426 464.854 183.54 464.854 176.279C464.854 169.019 470.74 163.133 478 163.133C485.261 163.133 491.147 169.019 491.147 176.279C491.147 183.54 485.261 189.426 478 189.426ZM478 185.482C472.918 185.482 468.798 181.362 468.798 176.279C468.798 171.197 472.918 167.077 478 167.077C483.083 167.077 487.203 171.197 487.203 176.279C487.203 181.362 483.083 185.482 478 185.482Z" fill="#0CA77C" stroke="#0CA77C" stroke-width="2.5" stroke-miterlimit="10"/>
<path fill-rule="evenodd" clip-rule="evenodd" d="M326.283 201.57C312.317 201.57 300.996 190.248 300.996 176.283C300.996 162.317 312.317 150.996 326.283 150.996C340.248 150.996 351.57 162.317 351.57 176.283C351.57 190.248 340.248 201.57 326.283 201.57ZM326.283 193.984C316.507 193.984 308.582 186.059 308.582 176.283C308.582 166.507 316.507 158.582 326.283 158.582C336.059 158.582 343.983 166.507 343.983 176.283C343.983 186.059 336.059 193.984 326.283 193.984Z" fill="#0CA77C" stroke="#0CA77C" stroke-width="2.5" stroke-miterlimit="10"/>
<path fill-rule="evenodd" clip-rule="evenodd" d="M275.716 201.57C261.751 201.57 250.429 190.248 250.429 176.283C250.429 162.317 261.751 150.996 275.716 150.996C289.682 150.996 301.003 162.317 301.003 176.283C301.003 190.248 289.682 201.57 275.716 201.57ZM275.716 193.984C265.94 193.984 258.016 186.059 258.016 176.283C258.016 166.507 265.94 158.582 275.716 158.582C285.492 158.582 293.417 166.507 293.417 176.283C293.417 186.059 285.492 193.984 275.716 193.984Z" fill="#0CA77C" stroke="#0CA77C" stroke-width="2.5" stroke-miterlimit="10"/>
<path fill-rule="evenodd" clip-rule="evenodd" d="M225.143 201.57C211.177 201.57 199.856 190.248 199.856 176.283C199.856 162.317 211.177 150.996 225.143 150.996C239.108 150.996 250.429 162.317 250.429 176.283C250.429 190.248 239.108 201.57 225.143 201.57ZM225.143 193.984C215.367 193.984 207.442 186.059 207.442 176.283C207.442 166.507 215.367 158.582 225.143 158.582C234.918 158.582 242.843 166.507 242.843 176.283C242.843 186.059 234.918 193.984 225.143 193.984Z" fill="#0CA77C" stroke="#0CA77C" stroke-width="2.5" stroke-miterlimit="10"/>
<path fill-rule="evenodd" clip-rule="evenodd" d="M123.999 193.482C114.503 193.482 106.804 185.783 106.804 176.287C106.804 166.791 114.503 159.092 123.999 159.092C133.495 159.092 141.193 166.791 141.193 176.287C141.193 185.783 133.495 193.482 123.999 193.482ZM123.999 188.323C117.351 188.323 111.963 182.934 111.963 176.287C111.963 169.639 117.351 164.251 123.999 164.251C130.646 164.251 136.035 169.639 136.035 176.287C136.035 182.934 130.646 188.323 123.999 188.323Z" fill="#0CA77C" stroke="#0CA77C" stroke-width="2.5" stroke-miterlimit="10"/>
<path fill-rule="evenodd" clip-rule="evenodd" d="M73.4324 189.426C66.1718 189.426 60.2858 183.54 60.2858 176.279C60.2858 169.019 66.1718 163.133 73.4324 163.133C80.6931 163.133 86.5791 169.019 86.5791 176.279C86.5791 183.54 80.6932 189.426 73.4324 189.426ZM73.4324 185.482C68.3499 185.482 64.2298 181.362 64.2298 176.279C64.2298 171.197 68.3499 167.077 73.4324 167.077C78.5149 167.077 82.6351 171.197 82.6351 176.279C82.6351 181.362 78.5149 185.482 73.4324 185.482Z" fill="#0CA77C" stroke="#0CA77C" stroke-width="2.5" stroke-miterlimit="10"/>
<path fill-rule="evenodd" clip-rule="evenodd" d="M528.567 234.686C524.241 234.686 520.734 231.179 520.734 226.853C520.734 222.528 524.241 219.021 528.567 219.021C532.892 219.021 536.399 222.528 536.399 226.853C536.399 231.179 532.892 234.686 528.567 234.686ZM528.567 232.336C525.539 232.336 523.084 229.881 523.084 226.853C523.084 223.825 525.539 221.371 528.567 221.371C531.595 221.371 534.049 223.825 534.049 226.853C534.049 229.881 531.595 232.336 528.567 232.336Z" fill="#0CA77C" stroke="#0CA77C" stroke-width="2.5" stroke-miterlimit="10"/>
<path fill-rule="evenodd" clip-rule="evenodd" d="M477.993 237.46C472.135 237.46 467.386 232.711 467.386 226.853C467.386 220.995 472.135 216.247 477.993 216.247C483.851 216.247 488.6 220.995 488.6 226.853C488.6 232.711 483.851 237.46 477.993 237.46ZM477.993 234.278C473.892 234.278 470.568 230.954 470.568 226.853C470.568 222.753 473.892 219.429 477.993 219.429C482.093 219.429 485.418 222.753 485.418 226.853C485.418 230.954 482.093 234.278 477.993 234.278Z" fill="#0CA77C" stroke="#0CA77C" stroke-width="2.5" stroke-miterlimit="10"/>
<path fill-rule="evenodd" clip-rule="evenodd" d="M427.426 240.234C420.036 240.234 414.046 234.243 414.046 226.853C414.046 219.463 420.036 213.472 427.426 213.472C434.817 213.472 440.807 219.463 440.807 226.853C440.807 234.243 434.817 240.234 427.426 240.234ZM427.426 236.22C422.253 236.22 418.06 232.026 418.06 226.853C418.06 221.68 422.253 217.486 427.426 217.486C432.6 217.486 436.793 221.68 436.793 226.853C436.793 232.026 432.599 236.22 427.426 236.22Z" fill="#0CA77C" stroke="#0CA77C" stroke-width="2.5" stroke-miterlimit="10"/>
<path fill-rule="evenodd" clip-rule="evenodd" d="M275.713 245.783C265.258 245.783 256.783 237.308 256.783 226.853C256.783 216.399 265.258 207.924 275.713 207.924C286.167 207.924 294.642 216.399 294.642 226.853C294.642 237.308 286.167 245.783 275.713 245.783ZM275.713 240.104C268.395 240.104 262.462 234.171 262.462 226.853C262.462 219.535 268.395 213.603 275.713 213.603C283.031 213.603 288.963 219.535 288.963 226.853C288.963 234.171 283.031 240.104 275.713 240.104Z" fill="#0CA77C" stroke="#0CA77C" stroke-width="2.5" stroke-miterlimit="10"/>
<path fill-rule="evenodd" clip-rule="evenodd" d="M225.139 245.783C214.685 245.783 206.209 237.308 206.209 226.853C206.209 216.399 214.685 207.924 225.139 207.924C235.593 207.924 244.068 216.399 244.068 226.853C244.068 237.308 235.593 245.783 225.139 245.783ZM225.139 240.104C217.821 240.104 211.888 234.171 211.888 226.853C211.888 219.535 217.821 213.603 225.139 213.603C232.457 213.603 238.39 219.535 238.39 226.853C238.39 234.171 232.457 240.104 225.139 240.104Z" fill="#0CA77C" stroke="#0CA77C" stroke-width="2.5" stroke-miterlimit="10"/>
<path fill-rule="evenodd" clip-rule="evenodd" d="M123.999 240.234C116.609 240.234 110.618 234.243 110.618 226.853C110.618 219.463 116.609 213.472 123.999 213.472C131.389 213.472 137.38 219.463 137.38 226.853C137.38 234.243 131.389 240.234 123.999 240.234ZM123.999 236.22C118.826 236.22 114.632 232.026 114.632 226.853C114.632 221.68 118.826 217.486 123.999 217.486C129.172 217.486 133.365 221.68 133.365 226.853C133.365 232.026 129.172 236.22 123.999 236.22Z" fill="#0CA77C" stroke="#0CA77C" stroke-width="2.5" stroke-miterlimit="10"/>
<path fill-rule="evenodd" clip-rule="evenodd" d="M22.8587 234.686C18.5331 234.686 15.0264 231.179 15.0264 226.853C15.0264 222.528 18.5331 219.021 22.8587 219.021C27.1844 219.021 30.6911 222.528 30.6911 226.853C30.6911 231.179 27.1844 234.686 22.8587 234.686ZM22.8587 232.336C19.8307 232.336 17.3761 229.881 17.3761 226.853C17.3761 223.825 19.8307 221.371 22.8587 221.371C25.8867 221.371 28.3414 223.825 28.3414 226.853C28.3414 229.881 25.8867 232.336 22.8587 232.336Z" fill="#0CA77C" stroke="#0CA77C" stroke-width="2.5" stroke-miterlimit="10"/>
<path fill-rule="evenodd" clip-rule="evenodd" d="M477.993 285.259C473.667 285.259 470.16 281.753 470.16 277.427C470.16 273.101 473.667 269.595 477.993 269.595C482.318 269.595 485.825 273.101 485.825 277.427C485.825 281.753 482.318 285.259 477.993 285.259ZM477.993 282.91C474.965 282.91 472.51 280.455 472.51 277.427C472.51 274.399 474.965 271.944 477.993 271.944C481.021 271.944 483.475 274.399 483.475 277.427C483.475 280.455 481.021 282.91 477.993 282.91Z" fill="#0CA77C" stroke="#0CA77C" stroke-width="2.5" stroke-miterlimit="10"/>
<path fill-rule="evenodd" clip-rule="evenodd" d="M326.283 289.417C319.659 289.417 314.289 284.047 314.289 277.423C314.289 270.799 319.659 265.43 326.283 265.43C332.907 265.43 338.276 270.799 338.276 277.423C338.276 284.047 332.907 289.417 326.283 289.417ZM326.283 285.819C321.646 285.819 317.887 282.06 317.887 277.423C317.887 272.787 321.646 269.028 326.283 269.028C330.919 269.028 334.678 272.787 334.678 277.423C334.678 282.06 330.92 285.819 326.283 285.819Z" fill="#0CA77C" stroke="#0CA77C" stroke-width="2.5" stroke-miterlimit="10"/>
<path fill-rule="evenodd" clip-rule="evenodd" d="M275.716 289.417C269.092 289.417 263.723 284.047 263.723 277.423C263.723 270.799 269.092 265.43 275.716 265.43C282.34 265.43 287.71 270.799 287.71 277.423C287.71 284.047 282.34 289.417 275.716 289.417ZM275.716 285.819C271.08 285.819 267.321 282.06 267.321 277.423C267.321 272.787 271.08 269.028 275.716 269.028C280.353 269.028 284.112 272.787 284.112 277.423C284.112 282.06 280.353 285.819 275.716 285.819Z" fill="#0CA77C" stroke="#0CA77C" stroke-width="2.5" stroke-miterlimit="10"/>
<path fill-rule="evenodd" clip-rule="evenodd" d="M174.573 288.034C168.715 288.034 163.966 283.285 163.966 277.427C163.966 271.569 168.715 266.82 174.573 266.82C180.43 266.82 185.179 271.569 185.179 277.427C185.179 283.285 180.43 288.034 174.573 288.034ZM174.573 284.852C170.472 284.852 167.148 281.527 167.148 277.427C167.148 273.326 170.472 270.002 174.573 270.002C178.673 270.002 181.997 273.326 181.997 277.427C181.997 281.527 178.673 284.852 174.573 284.852Z" fill="#0CA77C" stroke="#0CA77C" stroke-width="2.5" stroke-miterlimit="10"/>
<path fill-rule="evenodd" clip-rule="evenodd" d="M116.175 24.5731C116.175 20.2474 119.681 16.7407 124.007 16.7407C128.333 16.7407 131.84 20.2474 131.84 24.5731C131.84 28.8988 128.333 32.4055 124.007 32.4055C119.681 32.4055 116.175 28.8988 116.175 24.5731ZM118.525 24.5731C118.525 21.5451 120.979 19.0904 124.007 19.0904C127.035 19.0904 129.49 21.5451 129.49 24.5731C129.49 27.6011 127.035 30.0558 124.007 30.0558C120.979 30.0558 118.525 27.6011 118.525 24.5731Z" fill="#0CA77C" stroke="#0CA77C" stroke-width="2.5" stroke-miterlimit="10"/>
<path fill-rule="evenodd" clip-rule="evenodd" d="M116.175 277.427C116.175 273.101 119.681 269.595 124.007 269.595C128.333 269.595 131.84 273.101 131.84 277.427C131.84 281.753 128.333 285.259 124.007 285.259C119.681 285.259 116.175 281.753 116.175 277.427ZM118.525 277.427C118.525 274.399 120.979 271.944 124.007 271.944C127.035 271.944 129.49 274.399 129.49 277.427C129.49 280.455 127.035 282.91 124.007 282.91C120.979 282.91 118.525 280.455 118.525 277.427Z" fill="#0CA77C" stroke="#0CA77C" stroke-width="2.5" stroke-miterlimit="10"/>
<path fill-rule="evenodd" clip-rule="evenodd" d="M571.309 226.853C571.309 222.528 574.815 219.021 579.141 219.021C583.467 219.021 586.974 222.528 586.974 226.853C586.974 231.179 583.467 234.686 579.141 234.686C574.815 234.686 571.309 231.179 571.309 226.853ZM573.659 226.853C573.659 223.825 576.113 221.371 579.141 221.371C582.169 221.371 584.624 223.825 584.624 226.853C584.624 229.881 582.169 232.336 579.141 232.336C576.113 232.336 573.659 229.881 573.659 226.853Z" fill="#0CA77C" stroke="#0CA77C" stroke-width="2.5" stroke-miterlimit="10"/>
<path fill-rule="evenodd" clip-rule="evenodd" d="M379.825 110.52C420.055 110.52 452.669 143.134 452.669 183.365C452.669 223.596 420.055 256.21 379.825 256.21H220.175C179.945 256.21 147.331 223.596 147.331 183.365C147.331 143.134 179.945 110.52 220.175 110.52H227.4C230.578 72.7929 262.126 43.7896 299.986 43.7896C337.847 43.7896 369.395 72.7929 372.573 110.52L379.825 110.52Z" stroke="black" stroke-opacity="0.14902" stroke-width="10" stroke-miterlimit="10"/>
<path fill-rule="evenodd" clip-rule="evenodd" d="M379.825 110.52C420.055 110.52 452.669 143.134 452.669 183.365C452.669 223.596 420.055 256.21 379.825 256.21H220.175C179.945 256.21 147.331 223.596 147.331 183.365C147.331 143.134 179.945 110.52 220.175 110.52H227.4C230.578 72.7929 262.126 43.7896 299.986 43.7896C337.847 43.7896 369.395 72.7929 372.573 110.52L379.825 110.52Z" fill="white"/>
<path d="M300.558 217.208C303.849 217.208 306.516 219.876 306.516 223.167C306.516 226.458 303.849 229.125 300.558 229.125H300.5C297.209 229.125 294.542 226.458 294.542 223.167C294.542 219.876 297.209 217.208 300.5 217.208H300.558Z" fill="#00C28C"/>
<path d="M300.5 127.835C323.95 127.835 346.579 136.478 364.058 152.111C366.51 154.305 366.717 158.072 364.523 160.525C362.329 162.977 358.562 163.19 356.109 160.996C340.816 147.317 321.019 139.752 300.5 139.752C279.981 139.752 260.185 147.317 244.891 160.996C242.438 163.19 238.671 162.977 236.477 160.525C234.284 158.072 234.491 154.305 236.943 152.111C254.421 136.478 277.05 127.835 300.5 127.835Z" fill="#00C28C"/>
<path d="M303.706 157.703C319.697 158.486 334.894 165.105 346.38 176.364C348.729 178.667 348.765 182.439 346.462 184.789C344.158 187.138 340.386 187.174 338.036 184.871C328.639 175.66 316.206 170.249 303.124 169.608L300.5 169.544C286.464 169.544 272.987 175.046 262.964 184.871C260.614 187.174 256.842 187.138 254.538 184.789C252.235 182.439 252.27 178.667 254.62 176.364C266.871 164.355 283.344 157.627 300.5 157.627L303.706 157.703Z" fill="#00C28C"/>
<path d="M300.5 187.415C309.858 187.415 318.844 191.082 325.526 197.633C327.876 199.936 327.911 203.708 325.608 206.058C323.304 208.408 319.532 208.449 317.182 206.145C312.727 201.779 306.738 199.332 300.5 199.332C294.262 199.332 288.273 201.779 283.818 206.145C281.468 208.449 277.696 208.408 275.392 206.058C273.089 203.708 273.124 199.936 275.474 197.633C282.157 191.082 291.143 187.415 300.5 187.415Z" fill="#00C28C"/>
</g>
<defs>
<clipPath id="clip0_247_184">
<rect width="600" height="300" fill="white"/>
</clipPath>
</defs>
</svg>
