<svg width="600" height="300" viewBox="0 0 600 300" fill="none" xmlns="http://www.w3.org/2000/svg">
<g clip-path="url(#clip0_245_138)">
<rect width="600" height="300" fill="#0F7EBD"/>
<mask id="mask0_245_138" style="mask-type:alpha" maskUnits="userSpaceOnUse" x="0" y="0" width="600" height="300">
<rect width="600" height="300" fill="#D9D9D9"/>
</mask>
<g mask="url(#mask0_245_138)">
<rect x="143.371" y="-125" width="182.069" height="535.089" transform="rotate(18.4532 143.371 -125)" fill="#0A4D72"/>
<rect x="452.45" y="-111.37" width="182.069" height="535.089" transform="rotate(18.4532 452.45 -111.37)" fill="#0A4D72"/>
</g>
<g filter="url(#filter0_d_245_138)">
<path fill-rule="evenodd" clip-rule="evenodd" d="M172.385 126.186C196.503 126.186 216.051 145.844 216.051 170.093C216.051 194.342 196.503 214 172.385 214H76.6658C52.5485 214 33 194.342 33 170.093C33 145.844 52.5485 126.186 76.6658 126.186H81.0127C82.8925 103.678 101.657 86 124.526 86C147.395 86 166.159 103.678 168.038 126.186H172.385Z" fill="white"/>
</g>
<path d="M97 192V187.607L120.94 129H128.149L152 187.607V192H97ZM106.167 184.883H142.744L127.882 146.573C127.704 146.105 127.378 145.255 126.903 144.025C126.428 142.795 125.954 141.536 125.479 140.247C125.064 138.9 124.737 137.874 124.5 137.172C124.203 138.343 123.847 139.544 123.432 140.774C123.076 141.946 122.69 143.029 122.275 144.025C121.919 145.021 121.622 145.87 121.385 146.573L106.167 184.883Z" fill="#0F7EBD"/>
<g filter="url(#filter1_d_245_138)">
<path d="M301.708 194.25C293.791 194.25 286.874 193.042 280.958 190.625C275.041 188.125 270.374 184.375 266.958 179.375C263.624 174.375 261.791 168.042 261.458 160.375C261.374 156.958 261.333 153.292 261.333 149.375C261.333 145.458 261.374 141.708 261.458 138.125C261.791 130.625 263.666 124.375 267.083 119.375C270.583 114.292 275.291 110.5 281.208 108C287.208 105.5 294.041 104.25 301.708 104.25C307.208 104.25 312.333 104.917 317.083 106.25C321.916 107.5 326.208 109.458 329.958 112.125C333.708 114.708 336.666 117.958 338.833 121.875C340.999 125.708 342.124 130.208 342.208 135.375C342.208 136.125 341.916 136.75 341.333 137.25C340.833 137.75 340.208 138 339.458 138H318.333C317.083 138 316.166 137.75 315.583 137.25C314.999 136.75 314.499 135.875 314.083 134.625C312.999 131.042 311.416 128.625 309.333 127.375C307.249 126.125 304.708 125.5 301.708 125.5C298.041 125.5 295.124 126.5 292.958 128.5C290.791 130.417 289.624 133.833 289.458 138.75C289.208 145.583 289.208 152.583 289.458 159.75C289.624 164.667 290.791 168.125 292.958 170.125C295.124 172.042 298.041 173 301.708 173C304.708 173 307.249 172.333 309.333 171C311.499 169.667 313.083 167.292 314.083 163.875C314.416 162.542 314.874 161.667 315.458 161.25C316.124 160.75 317.083 160.5 318.333 160.5H339.458C340.208 160.5 340.833 160.75 341.333 161.25C341.916 161.75 342.208 162.375 342.208 163.125C342.124 168.292 340.999 172.833 338.833 176.75C336.666 180.583 333.708 183.833 329.958 186.5C326.208 189.083 321.916 191.042 317.083 192.375C312.333 193.625 307.208 194.25 301.708 194.25ZM385.054 194.25C377.721 194.25 371.513 193.167 366.429 191C361.429 188.833 357.596 185.667 354.929 181.5C352.263 177.25 350.763 172.167 350.429 166.25C350.346 164.5 350.304 162.583 350.304 160.5C350.304 158.417 350.346 156.5 350.429 154.75C350.763 148.75 352.346 143.667 355.179 139.5C358.013 135.333 361.929 132.167 366.929 130C372.013 127.833 378.054 126.75 385.054 126.75C392.054 126.75 398.054 127.833 403.054 130C408.138 132.167 412.096 135.333 414.929 139.5C417.763 143.667 419.346 148.75 419.679 154.75C419.846 156.5 419.929 158.417 419.929 160.5C419.929 162.583 419.846 164.5 419.679 166.25C419.346 172.167 417.846 177.25 415.179 181.5C412.513 185.667 408.638 188.833 403.554 191C398.554 193.167 392.388 194.25 385.054 194.25ZM385.054 176.625C388.138 176.625 390.263 175.708 391.429 173.875C392.596 172.042 393.263 169.292 393.429 165.625C393.513 164.375 393.554 162.667 393.554 160.5C393.554 158.333 393.513 156.625 393.429 155.375C393.263 151.792 392.596 149.083 391.429 147.25C390.263 145.333 388.138 144.375 385.054 144.375C382.054 144.375 379.971 145.333 378.804 147.25C377.638 149.083 376.929 151.792 376.679 155.375C376.596 156.625 376.554 158.333 376.554 160.5C376.554 162.667 376.596 164.375 376.679 165.625C376.929 169.292 377.638 172.042 378.804 173.875C379.971 175.708 382.054 176.625 385.054 176.625ZM433.926 193C433.01 193 432.218 192.708 431.551 192.125C430.968 191.458 430.676 190.667 430.676 189.75V131.25C430.676 130.333 430.968 129.583 431.551 129C432.218 128.333 433.01 128 433.926 128H452.051C452.968 128 453.718 128.333 454.301 129C454.968 129.583 455.301 130.333 455.301 131.25V135.875C457.801 133.458 460.635 131.542 463.801 130.125C467.051 128.708 470.593 128 474.426 128H480.051C480.968 128 481.76 128.333 482.426 129C483.093 129.583 483.426 130.333 483.426 131.25V147.375C483.426 148.292 483.093 149.083 482.426 149.75C481.76 150.417 480.968 150.75 480.051 150.75H466.051C463.051 150.75 460.76 151.542 459.176 153.125C457.593 154.625 456.801 156.875 456.801 159.875V189.75C456.801 190.667 456.468 191.458 455.801 192.125C455.218 192.708 454.468 193 453.551 193H433.926ZM523.098 194.25C512.681 194.25 504.39 191.583 498.223 186.25C492.14 180.833 489.015 172.583 488.848 161.5C488.848 161.167 488.848 160.75 488.848 160.25C488.848 159.667 488.848 159.25 488.848 159C489.098 152.083 490.598 146.25 493.348 141.5C496.181 136.667 500.098 133 505.098 130.5C510.181 128 516.14 126.75 522.973 126.75C530.64 126.75 536.973 128.292 541.973 131.375C547.056 134.375 550.848 138.417 553.348 143.5C555.848 148.5 557.098 154.125 557.098 160.375V163.875C557.098 164.708 556.765 165.458 556.098 166.125C555.431 166.792 554.64 167.125 553.723 167.125H515.223C515.223 167.125 515.223 167.208 515.223 167.375C515.223 167.542 515.223 167.708 515.223 167.875C515.223 169.875 515.473 171.667 515.973 173.25C516.556 174.75 517.431 175.958 518.598 176.875C519.765 177.708 521.181 178.125 522.848 178.125C523.931 178.125 524.848 177.958 525.598 177.625C526.348 177.292 526.973 176.875 527.473 176.375C528.056 175.792 528.556 175.25 528.973 174.75C529.723 174 530.348 173.542 530.848 173.375C531.348 173.125 532.098 173 533.098 173H552.723C553.473 173 554.098 173.25 554.598 173.75C555.181 174.25 555.431 174.875 555.348 175.625C555.265 177.125 554.556 178.958 553.223 181.125C551.89 183.208 549.89 185.25 547.223 187.25C544.64 189.25 541.306 190.917 537.223 192.25C533.14 193.583 528.431 194.25 523.098 194.25ZM515.223 153.125H530.723V152.875C530.723 150.625 530.431 148.708 529.848 147.125C529.265 145.542 528.39 144.375 527.223 143.625C526.056 142.792 524.64 142.375 522.973 142.375C521.306 142.375 519.89 142.792 518.723 143.625C517.556 144.375 516.681 145.542 516.098 147.125C515.515 148.708 515.223 150.625 515.223 152.875V153.125Z" fill="white"/>
</g>
</g>
<defs>
<filter id="filter0_d_245_138" x="-17" y="36" width="283.051" height="228" filterUnits="userSpaceOnUse" color-interpolation-filters="sRGB">
<feFlood flood-opacity="0" result="BackgroundImageFix"/>
<feColorMatrix in="SourceAlpha" type="matrix" values="0 0 0 0 0 0 0 0 0 0 0 0 0 0 0 0 0 0 127 0" result="hardAlpha"/>
<feOffset/>
<feGaussianBlur stdDeviation="25"/>
<feComposite in2="hardAlpha" operator="out"/>
<feColorMatrix type="matrix" values="0 0 0 0 0 0 0 0 0 0 0 0 0 0 0 0 0 0 1 0"/>
<feBlend mode="normal" in2="BackgroundImageFix" result="effect1_dropShadow_245_138"/>
<feBlend mode="normal" in="SourceGraphic" in2="effect1_dropShadow_245_138" result="shape"/>
</filter>
<filter id="filter1_d_245_138" x="251.333" y="104.25" width="315.766" height="110" filterUnits="userSpaceOnUse" color-interpolation-filters="sRGB">
<feFlood flood-opacity="0" result="BackgroundImageFix"/>
<feColorMatrix in="SourceAlpha" type="matrix" values="0 0 0 0 0 0 0 0 0 0 0 0 0 0 0 0 0 0 127 0" result="hardAlpha"/>
<feOffset dy="10"/>
<feGaussianBlur stdDeviation="5"/>
<feComposite in2="hardAlpha" operator="out"/>
<feColorMatrix type="matrix" values="0 0 0 0 0 0 0 0 0 0 0 0 0 0 0 0 0 0 0.5 0"/>
<feBlend mode="normal" in2="BackgroundImageFix" result="effect1_dropShadow_245_138"/>
<feBlend mode="normal" in="SourceGraphic" in2="effect1_dropShadow_245_138" result="shape"/>
</filter>
<clipPath id="clip0_245_138">
<rect width="600" height="300" fill="white"/>
</clipPath>
</defs>
</svg>
