<svg width="600" height="300" viewBox="0 0 600 300" fill="none" xmlns="http://www.w3.org/2000/svg">
<g clip-path="url(#clip0_245_226)">
<rect width="600" height="300" fill="#0F7EBD"/>
<mask id="mask0_245_226" style="mask-type:alpha" maskUnits="userSpaceOnUse" x="0" y="0" width="600" height="300">
<rect width="600" height="300" fill="#D9D9D9"/>
</mask>
<g mask="url(#mask0_245_226)">
<rect x="143.371" y="-125" width="182.069" height="535.089" transform="rotate(18.4532 143.371 -125)" fill="#0A4D72"/>
<rect x="452.45" y="-111.37" width="182.069" height="535.089" transform="rotate(18.4532 452.45 -111.37)" fill="#0A4D72"/>
</g>
<g filter="url(#filter0_d_245_226)">
<path fill-rule="evenodd" clip-rule="evenodd" d="M171.385 126.186C195.503 126.186 215.051 145.844 215.051 170.093C215.051 194.342 195.503 214 171.385 214H75.6658C51.5485 214 32 194.342 32 170.093C32 145.844 51.5485 126.186 75.6658 126.186H80.0127C81.8925 103.678 100.657 86 123.526 86C146.395 86 165.159 103.678 167.038 126.186H171.385Z" fill="white"/>
</g>
<g filter="url(#filter1_d_245_226)">
<path d="M246.803 173C246.37 173 245.98 172.848 245.633 172.545C245.287 172.198 245.113 171.787 245.113 171.31V129.19C245.113 128.713 245.287 128.323 245.633 128.02C245.98 127.673 246.37 127.5 246.803 127.5H264.613C268.817 127.5 272.457 128.193 275.533 129.58C278.61 130.923 281.037 132.917 282.813 135.56C284.59 138.203 285.543 141.453 285.673 145.31C285.76 147.173 285.803 148.82 285.803 150.25C285.803 151.68 285.76 153.305 285.673 155.125C285.5 159.198 284.568 162.557 282.878 165.2C281.232 167.843 278.892 169.815 275.858 171.115C272.825 172.372 269.185 173 264.938 173H246.803ZM259.088 161.95H264.613C266.043 161.95 267.257 161.712 268.253 161.235C269.25 160.758 270.03 160.022 270.593 159.025C271.157 157.985 271.46 156.663 271.503 155.06C271.547 153.803 271.568 152.677 271.568 151.68C271.612 150.683 271.612 149.687 271.568 148.69C271.568 147.693 271.547 146.588 271.503 145.375C271.417 142.992 270.723 141.258 269.423 140.175C268.167 139.092 266.455 138.55 264.288 138.55H259.088V161.95ZM293.444 173C292.967 173 292.555 172.848 292.209 172.545C291.905 172.198 291.754 171.787 291.754 171.31V140.89C291.754 140.413 291.905 140.023 292.209 139.72C292.555 139.373 292.967 139.2 293.444 139.2H303.064C303.54 139.2 303.952 139.373 304.299 139.72C304.645 140.023 304.819 140.413 304.819 140.89V171.31C304.819 171.787 304.645 172.198 304.299 172.545C303.952 172.848 303.54 173 303.064 173H293.444ZM293.574 134.975C293.097 134.975 292.685 134.823 292.339 134.52C292.035 134.173 291.884 133.762 291.884 133.285V126.46C291.884 125.983 292.035 125.572 292.339 125.225C292.685 124.878 293.097 124.705 293.574 124.705H302.934C303.41 124.705 303.822 124.878 304.169 125.225C304.515 125.572 304.689 125.983 304.689 126.46V133.285C304.689 133.762 304.515 134.173 304.169 134.52C303.822 134.823 303.41 134.975 302.934 134.975H293.574ZM326.38 173.65C323.433 173.65 320.92 173.347 318.84 172.74C316.76 172.09 315.048 171.288 313.705 170.335C312.405 169.382 311.451 168.407 310.845 167.41C310.238 166.37 309.913 165.46 309.87 164.68C309.826 164.203 309.956 163.813 310.26 163.51C310.606 163.163 310.975 162.99 311.365 162.99H320.79C320.833 162.99 320.898 163.012 320.985 163.055C321.071 163.055 321.158 163.098 321.245 163.185C321.808 163.358 322.328 163.64 322.805 164.03C323.325 164.42 323.888 164.767 324.495 165.07C325.145 165.373 325.903 165.525 326.77 165.525C327.506 165.525 328.156 165.373 328.72 165.07C329.326 164.723 329.63 164.247 329.63 163.64C329.63 163.12 329.456 162.665 329.11 162.275C328.806 161.885 328.135 161.517 327.095 161.17C326.055 160.78 324.386 160.368 322.09 159.935C319.966 159.502 318.016 158.873 316.24 158.05C314.506 157.183 313.12 156.035 312.08 154.605C311.083 153.175 310.585 151.42 310.585 149.34C310.585 147.563 311.17 145.852 312.34 144.205C313.51 142.558 315.243 141.215 317.54 140.175C319.88 139.092 322.74 138.55 326.12 138.55C328.676 138.55 330.93 138.853 332.88 139.46C334.873 140.067 336.541 140.825 337.885 141.735C339.271 142.645 340.311 143.62 341.005 144.66C341.741 145.7 342.131 146.632 342.175 147.455C342.218 147.932 342.088 148.343 341.785 148.69C341.481 148.993 341.135 149.145 340.745 149.145H332.23C332.1 149.145 331.948 149.145 331.775 149.145C331.645 149.102 331.536 149.037 331.45 148.95C330.843 148.82 330.28 148.582 329.76 148.235C329.283 147.845 328.763 147.498 328.2 147.195C327.636 146.848 326.921 146.675 326.055 146.675C325.318 146.675 324.711 146.848 324.235 147.195C323.801 147.542 323.585 147.997 323.585 148.56C323.585 149.037 323.736 149.47 324.04 149.86C324.343 150.25 325.036 150.618 326.12 150.965C327.203 151.312 328.915 151.68 331.255 152.07C334.288 152.547 336.715 153.348 338.535 154.475C340.355 155.558 341.655 156.837 342.435 158.31C343.215 159.783 343.605 161.257 343.605 162.73C343.605 164.94 342.933 166.868 341.59 168.515C340.29 170.162 338.34 171.44 335.74 172.35C333.183 173.217 330.063 173.65 326.38 173.65ZM365.072 173.65C361.822 173.65 358.897 173.087 356.297 171.96C353.74 170.79 351.682 169.1 350.122 166.89C348.605 164.637 347.76 161.928 347.587 158.765C347.544 158.072 347.522 157.205 347.522 156.165C347.522 155.125 347.544 154.237 347.587 153.5C347.76 150.293 348.605 147.585 350.122 145.375C351.639 143.122 353.697 141.432 356.297 140.305C358.897 139.135 361.822 138.55 365.072 138.55C368.279 138.55 371.009 139.005 373.262 139.915C375.559 140.825 377.4 141.952 378.787 143.295C380.217 144.638 381.279 145.982 381.972 147.325C382.665 148.668 383.034 149.795 383.077 150.705C383.12 151.182 382.947 151.593 382.557 151.94C382.21 152.287 381.82 152.46 381.387 152.46H370.922C370.445 152.46 370.077 152.352 369.817 152.135C369.557 151.875 369.319 151.528 369.102 151.095C368.669 150.142 368.17 149.448 367.607 149.015C367.044 148.538 366.285 148.3 365.332 148.3C363.989 148.3 362.992 148.777 362.342 149.73C361.692 150.64 361.345 152.005 361.302 153.825C361.215 155.645 361.215 157.183 361.302 158.44C361.389 160.303 361.735 161.69 362.342 162.6C362.992 163.467 363.989 163.9 365.332 163.9C366.415 163.9 367.217 163.683 367.737 163.25C368.257 162.773 368.712 162.058 369.102 161.105C369.275 160.672 369.492 160.347 369.752 160.13C370.055 159.87 370.445 159.74 370.922 159.74H381.387C381.82 159.74 382.21 159.913 382.557 160.26C382.947 160.607 383.12 161.018 383.077 161.495C383.034 162.102 382.795 162.925 382.362 163.965C381.972 164.962 381.344 166.023 380.477 167.15C379.654 168.233 378.549 169.273 377.162 170.27C375.775 171.267 374.085 172.09 372.092 172.74C370.099 173.347 367.759 173.65 365.072 173.65ZM405.076 173.65C401.263 173.65 398.034 173.087 395.391 171.96C392.791 170.833 390.798 169.187 389.411 167.02C388.024 164.81 387.244 162.167 387.071 159.09C387.028 158.18 387.006 157.183 387.006 156.1C387.006 155.017 387.028 154.02 387.071 153.11C387.244 149.99 388.068 147.347 389.541 145.18C391.014 143.013 393.051 141.367 395.651 140.24C398.294 139.113 401.436 138.55 405.076 138.55C408.716 138.55 411.836 139.113 414.436 140.24C417.079 141.367 419.138 143.013 420.611 145.18C422.084 147.347 422.908 149.99 423.081 153.11C423.168 154.02 423.211 155.017 423.211 156.1C423.211 157.183 423.168 158.18 423.081 159.09C422.908 162.167 422.128 164.81 420.741 167.02C419.354 169.187 417.339 170.833 414.696 171.96C412.096 173.087 408.889 173.65 405.076 173.65ZM405.076 164.485C406.679 164.485 407.784 164.008 408.391 163.055C408.998 162.102 409.344 160.672 409.431 158.765C409.474 158.115 409.496 157.227 409.496 156.1C409.496 154.973 409.474 154.085 409.431 153.435C409.344 151.572 408.998 150.163 408.391 149.21C407.784 148.213 406.679 147.715 405.076 147.715C403.516 147.715 402.433 148.213 401.826 149.21C401.219 150.163 400.851 151.572 400.721 153.435C400.678 154.085 400.656 154.973 400.656 156.1C400.656 157.227 400.678 158.115 400.721 158.765C400.851 160.672 401.219 162.102 401.826 163.055C402.433 164.008 403.516 164.485 405.076 164.485ZM439.75 173C439.057 173 438.558 172.827 438.255 172.48C437.995 172.133 437.757 171.765 437.54 171.375L425.125 141.215C425.082 141.042 425.06 140.868 425.06 140.695C425.06 140.305 425.212 139.958 425.515 139.655C425.818 139.352 426.165 139.2 426.555 139.2H435.785C436.392 139.2 436.847 139.373 437.15 139.72C437.453 140.023 437.67 140.327 437.8 140.63L444.04 158.245L450.345 140.63C450.475 140.327 450.692 140.023 450.995 139.72C451.298 139.373 451.753 139.2 452.36 139.2H461.525C461.958 139.2 462.305 139.352 462.565 139.655C462.868 139.958 463.02 140.305 463.02 140.695C463.02 140.868 462.998 141.042 462.955 141.215L450.605 171.375C450.432 171.765 450.172 172.133 449.825 172.48C449.522 172.827 449.045 173 448.395 173H439.75ZM482.635 173.65C477.219 173.65 472.907 172.263 469.7 169.49C466.537 166.673 464.912 162.383 464.825 156.62C464.825 156.447 464.825 156.23 464.825 155.97C464.825 155.667 464.825 155.45 464.825 155.32C464.955 151.723 465.735 148.69 467.165 146.22C468.639 143.707 470.675 141.8 473.275 140.5C475.919 139.2 479.017 138.55 482.57 138.55C486.557 138.55 489.85 139.352 492.45 140.955C495.094 142.515 497.065 144.617 498.365 147.26C499.665 149.86 500.315 152.785 500.315 156.035V157.855C500.315 158.288 500.142 158.678 499.795 159.025C499.449 159.372 499.037 159.545 498.56 159.545H478.54C478.54 159.545 478.54 159.588 478.54 159.675C478.54 159.762 478.54 159.848 478.54 159.935C478.54 160.975 478.67 161.907 478.93 162.73C479.234 163.51 479.689 164.138 480.295 164.615C480.902 165.048 481.639 165.265 482.505 165.265C483.069 165.265 483.545 165.178 483.935 165.005C484.325 164.832 484.65 164.615 484.91 164.355C485.214 164.052 485.474 163.77 485.69 163.51C486.08 163.12 486.405 162.882 486.665 162.795C486.925 162.665 487.315 162.6 487.835 162.6H498.04C498.43 162.6 498.755 162.73 499.015 162.99C499.319 163.25 499.449 163.575 499.405 163.965C499.362 164.745 498.994 165.698 498.3 166.825C497.607 167.908 496.567 168.97 495.18 170.01C493.837 171.05 492.104 171.917 489.98 172.61C487.857 173.303 485.409 173.65 482.635 173.65ZM478.54 152.265H486.6V152.135C486.6 150.965 486.449 149.968 486.145 149.145C485.842 148.322 485.387 147.715 484.78 147.325C484.174 146.892 483.437 146.675 482.57 146.675C481.704 146.675 480.967 146.892 480.36 147.325C479.754 147.715 479.299 148.322 478.995 149.145C478.692 149.968 478.54 150.965 478.54 152.135V152.265ZM507.36 173C506.883 173 506.471 172.848 506.125 172.545C505.821 172.198 505.67 171.787 505.67 171.31V140.89C505.67 140.413 505.821 140.023 506.125 139.72C506.471 139.373 506.883 139.2 507.36 139.2H516.785C517.261 139.2 517.651 139.373 517.955 139.72C518.301 140.023 518.475 140.413 518.475 140.89V143.295C519.775 142.038 521.248 141.042 522.895 140.305C524.585 139.568 526.426 139.2 528.42 139.2H531.345C531.821 139.2 532.233 139.373 532.58 139.72C532.926 140.023 533.1 140.413 533.1 140.89V149.275C533.1 149.752 532.926 150.163 532.58 150.51C532.233 150.857 531.821 151.03 531.345 151.03H524.065C522.505 151.03 521.313 151.442 520.49 152.265C519.666 153.045 519.255 154.215 519.255 155.775V171.31C519.255 171.787 519.081 172.198 518.735 172.545C518.431 172.848 518.041 173 517.565 173H507.36ZM543.781 185.35C543.391 185.35 543.044 185.22 542.741 184.96C542.481 184.7 542.351 184.375 542.351 183.985C542.351 183.898 542.351 183.79 542.351 183.66C542.394 183.53 542.438 183.378 542.481 183.205L547.681 170.92L535.136 141.345C535.049 141.085 535.006 140.868 535.006 140.695C535.093 140.305 535.266 139.958 535.526 139.655C535.829 139.352 536.176 139.2 536.566 139.2H545.731C546.381 139.2 546.836 139.373 547.096 139.72C547.399 140.023 547.616 140.327 547.746 140.63L554.116 157.53L560.681 140.63C560.854 140.283 561.093 139.958 561.396 139.655C561.699 139.352 562.154 139.2 562.761 139.2H571.861C572.208 139.2 572.533 139.352 572.836 139.655C573.139 139.915 573.291 140.218 573.291 140.565C573.291 140.825 573.248 141.085 573.161 141.345L554.831 183.92C554.658 184.267 554.398 184.592 554.051 184.895C553.748 185.198 553.293 185.35 552.686 185.35H543.781Z" fill="white"/>
</g>
<path d="M136.6 184.4C136.6 179.573 134.684 174.943 131.27 171.529C128.07 168.329 123.8 166.446 119.301 166.223L118.4 166.2C113.573 166.2 108.943 168.116 105.529 171.529C102.116 174.943 100.2 179.573 100.2 184.4C100.2 185.836 99.0359 187 97.6 187C96.1641 187 95 185.836 95 184.4C95 178.194 97.4646 172.241 101.853 167.853C106.241 163.465 112.194 161 118.4 161C124.606 161 130.559 163.465 134.947 167.853C139.335 172.241 141.8 178.194 141.8 184.4C141.8 185.836 140.636 187 139.2 187C137.764 187 136.6 185.836 136.6 184.4Z" fill="#0F7EBD"/>
<path d="M128.8 150.6C128.8 144.856 124.144 140.2 118.4 140.2C112.656 140.2 108 144.856 108 150.6C108 156.344 112.656 161 118.4 161C124.144 161 128.8 156.344 128.8 150.6ZM134 150.6C134 159.216 127.015 166.2 118.4 166.2C109.784 166.2 102.8 159.216 102.8 150.6C102.8 141.984 109.784 135 118.4 135C127.015 135 134 141.984 134 150.6Z" fill="#0F7EBD"/>
<path d="M147 181.799C147 173.971 142.282 166.561 137.639 163.079C136.985 162.588 136.6 161.817 136.6 160.999C136.601 160.181 136.985 159.41 137.639 158.92C139.006 157.894 140.1 156.546 140.823 154.997C141.545 153.448 141.875 151.745 141.783 150.038C141.69 148.331 141.178 146.673 140.292 145.211C139.406 143.749 138.174 142.528 136.705 141.656C135.47 140.924 135.061 139.329 135.793 138.094C136.525 136.859 138.12 136.451 139.355 137.183C141.561 138.491 143.412 140.324 144.741 142.517C146.069 144.71 146.836 147.196 146.975 149.756C147.114 152.316 146.619 154.872 145.535 157.196C144.901 158.555 144.071 159.807 143.085 160.923C147.953 165.662 152.2 173.42 152.2 181.799C152.2 183.235 151.036 184.399 149.6 184.399C148.164 184.399 147 183.235 147 181.799Z" fill="#0F7EBD"/>
</g>
<defs>
<filter id="filter0_d_245_226" x="-18" y="36" width="283.051" height="228" filterUnits="userSpaceOnUse" color-interpolation-filters="sRGB">
<feFlood flood-opacity="0" result="BackgroundImageFix"/>
<feColorMatrix in="SourceAlpha" type="matrix" values="0 0 0 0 0 0 0 0 0 0 0 0 0 0 0 0 0 0 127 0" result="hardAlpha"/>
<feOffset/>
<feGaussianBlur stdDeviation="25"/>
<feComposite in2="hardAlpha" operator="out"/>
<feColorMatrix type="matrix" values="0 0 0 0 0 0 0 0 0 0 0 0 0 0 0 0 0 0 1 0"/>
<feBlend mode="normal" in2="BackgroundImageFix" result="effect1_dropShadow_245_226"/>
<feBlend mode="normal" in="SourceGraphic" in2="effect1_dropShadow_245_226" result="shape"/>
</filter>
<filter id="filter1_d_245_226" x="235.113" y="124.705" width="348.178" height="80.645" filterUnits="userSpaceOnUse" color-interpolation-filters="sRGB">
<feFlood flood-opacity="0" result="BackgroundImageFix"/>
<feColorMatrix in="SourceAlpha" type="matrix" values="0 0 0 0 0 0 0 0 0 0 0 0 0 0 0 0 0 0 127 0" result="hardAlpha"/>
<feOffset dy="10"/>
<feGaussianBlur stdDeviation="5"/>
<feComposite in2="hardAlpha" operator="out"/>
<feColorMatrix type="matrix" values="0 0 0 0 0 0 0 0 0 0 0 0 0 0 0 0 0 0 0.5 0"/>
<feBlend mode="normal" in2="BackgroundImageFix" result="effect1_dropShadow_245_226"/>
<feBlend mode="normal" in="SourceGraphic" in2="effect1_dropShadow_245_226" result="shape"/>
</filter>
<clipPath id="clip0_245_226">
<rect width="600" height="300" fill="white"/>
</clipPath>
</defs>
</svg>
