<svg width="312" height="218" viewBox="0 0 312 218" fill="none" xmlns="http://www.w3.org/2000/svg">
<path d="M155.88 5C192.184 5.00021 222.016 33.0714 225.005 68.8584L225.388 73.4414H237.391C275.678 73.4414 306.759 104.657 306.759 143.221C306.759 181.785 275.678 213 237.391 213H74.3682C36.0809 213 5 181.784 5 143.221C5.00012 104.657 36.0809 73.4415 74.3682 73.4414H86.3711L86.7539 68.8584C89.7429 33.0713 119.576 5 155.88 5Z" fill="white" stroke="#0F7EBD" stroke-width="10"/>
<path d="M109.5 180V172.5L149.85 72.4502H162L202.2 172.5V180H109.5ZM124.95 167.85H186.6L161.55 102.45C161.25 101.65 160.7 100.2 159.9 98.1002C159.1 96.0002 158.3 93.8502 157.5 91.6502C156.8 89.3502 156.25 87.6002 155.85 86.4002C155.35 88.4002 154.75 90.4502 154.05 92.5502C153.45 94.5502 152.8 96.4002 152.1 98.1002C151.5 99.8002 151 101.25 150.6 102.45L124.95 167.85Z" fill="#0F7EBD"/>
</svg>
