<svg width="600" height="300" viewBox="0 0 600 300" fill="none" xmlns="http://www.w3.org/2000/svg">
<g clip-path="url(#clip0_245_153)">
<rect width="600" height="300" fill="#0F7EBD"/>
<mask id="mask0_245_153" style="mask-type:alpha" maskUnits="userSpaceOnUse" x="0" y="0" width="600" height="300">
<rect width="600" height="300" fill="#D9D9D9"/>
</mask>
<g mask="url(#mask0_245_153)">
<rect x="143.371" y="-125" width="182.069" height="535.089" transform="rotate(18.4532 143.371 -125)" fill="#0A4D72"/>
<rect x="452.45" y="-111.37" width="182.069" height="535.089" transform="rotate(18.4532 452.45 -111.37)" fill="#0A4D72"/>
</g>
<g filter="url(#filter0_d_245_153)">
<path fill-rule="evenodd" clip-rule="evenodd" d="M171.385 126.186C195.503 126.186 215.051 145.844 215.051 170.093C215.051 194.342 195.503 214 171.385 214H75.6658C51.5485 214 32 194.342 32 170.093C32 145.844 51.5485 126.186 75.6658 126.186H80.0127C81.8925 103.678 100.657 86 123.526 86C146.395 86 165.159 103.678 167.038 126.186H171.385Z" fill="white"/>
</g>
<g filter="url(#filter1_d_245_153)">
<path d="M289.575 194.25C280.825 194.25 273.534 193.042 267.7 190.625C261.95 188.125 257.617 184.917 254.7 181C251.867 177 250.367 172.792 250.2 168.375C250.2 167.625 250.45 167 250.95 166.5C251.45 166 252.075 165.75 252.825 165.75H272.7C273.867 165.75 274.784 165.958 275.45 166.375C276.117 166.708 276.825 167.208 277.575 167.875C278.325 168.792 279.2 169.667 280.2 170.5C281.2 171.25 282.492 171.875 284.075 172.375C285.659 172.792 287.492 173 289.575 173C293.409 173 296.367 172.5 298.45 171.5C300.534 170.417 301.575 168.958 301.575 167.125C301.575 165.708 300.992 164.542 299.825 163.625C298.742 162.708 296.867 161.875 294.2 161.125C291.534 160.375 287.909 159.583 283.325 158.75C276.909 157.667 271.367 156.083 266.7 154C262.034 151.833 258.45 148.958 255.95 145.375C253.534 141.708 252.325 137.208 252.325 131.875C252.325 126.458 253.825 121.667 256.825 117.5C259.909 113.333 264.159 110.083 269.575 107.75C275.075 105.417 281.45 104.25 288.7 104.25C294.7 104.25 299.992 105.042 304.575 106.625C309.242 108.208 313.159 110.292 316.325 112.875C319.492 115.375 321.909 118.083 323.575 121C325.242 123.917 326.117 126.708 326.2 129.375C326.2 130.125 325.909 130.792 325.325 131.375C324.825 131.875 324.242 132.125 323.575 132.125H302.7C301.7 132.125 300.825 131.958 300.075 131.625C299.409 131.292 298.784 130.75 298.2 130C297.784 128.833 296.742 127.792 295.075 126.875C293.409 125.958 291.284 125.5 288.7 125.5C285.867 125.5 283.7 126 282.2 127C280.7 127.917 279.95 129.292 279.95 131.125C279.95 132.375 280.409 133.458 281.325 134.375C282.242 135.292 283.867 136.125 286.2 136.875C288.534 137.542 291.784 138.292 295.95 139.125C303.867 140.292 310.242 141.958 315.075 144.125C319.992 146.292 323.575 149.125 325.825 152.625C328.075 156.125 329.2 160.5 329.2 165.75C329.2 171.667 327.492 176.75 324.075 181C320.659 185.25 315.95 188.542 309.95 190.875C304.034 193.125 297.242 194.25 289.575 194.25ZM350.673 216.75C349.923 216.75 349.256 216.5 348.673 216C348.173 215.5 347.923 214.875 347.923 214.125C347.923 213.958 347.923 213.75 347.923 213.5C348.006 213.25 348.09 212.958 348.173 212.625L358.173 189L334.048 132.125C333.881 131.625 333.798 131.208 333.798 130.875C333.965 130.125 334.298 129.458 334.798 128.875C335.381 128.292 336.048 128 336.798 128H354.423C355.673 128 356.548 128.333 357.048 129C357.631 129.583 358.048 130.167 358.298 130.75L370.548 163.25L383.173 130.75C383.506 130.083 383.965 129.458 384.548 128.875C385.131 128.292 386.006 128 387.173 128H404.673C405.34 128 405.965 128.292 406.548 128.875C407.131 129.375 407.423 129.958 407.423 130.625C407.423 131.125 407.34 131.625 407.173 132.125L371.923 214C371.59 214.667 371.09 215.292 370.423 215.875C369.84 216.458 368.965 216.75 367.798 216.75H350.673ZM418.571 193C417.655 193 416.863 192.708 416.196 192.125C415.613 191.458 415.321 190.667 415.321 189.75V131.25C415.321 130.333 415.613 129.583 416.196 129C416.863 128.333 417.655 128 418.571 128H436.696C437.613 128 438.363 128.333 438.946 129C439.613 129.583 439.946 130.333 439.946 131.25V135.75C442.113 133.25 444.988 131.125 448.571 129.375C452.155 127.625 456.238 126.75 460.821 126.75C465.321 126.75 469.405 127.792 473.071 129.875C476.738 131.958 479.696 135.083 481.946 139.25C484.196 143.417 485.321 148.667 485.321 155V189.75C485.321 190.667 484.988 191.458 484.321 192.125C483.655 192.708 482.863 193 481.946 193H462.196C461.28 193 460.488 192.708 459.821 192.125C459.238 191.458 458.946 190.667 458.946 189.75V155.875C458.946 152.792 458.196 150.417 456.696 148.75C455.196 147.083 453.071 146.25 450.321 146.25C447.571 146.25 445.405 147.083 443.821 148.75C442.238 150.417 441.446 152.792 441.446 155.875V189.75C441.446 190.667 441.113 191.458 440.446 192.125C439.863 192.708 439.113 193 438.196 193H418.571ZM529.097 194.25C522.847 194.25 517.222 193.167 512.222 191C507.305 188.75 503.347 185.5 500.347 181.25C497.43 176.917 495.805 171.708 495.472 165.625C495.388 164.292 495.347 162.625 495.347 160.625C495.347 158.625 495.388 156.917 495.472 155.5C495.805 149.333 497.43 144.125 500.347 139.875C503.263 135.542 507.222 132.292 512.222 130.125C517.222 127.875 522.847 126.75 529.097 126.75C535.263 126.75 540.513 127.625 544.847 129.375C549.263 131.125 552.805 133.292 555.472 135.875C558.222 138.458 560.263 141.042 561.597 143.625C562.93 146.208 563.638 148.375 563.722 150.125C563.805 151.042 563.472 151.833 562.722 152.5C562.055 153.167 561.305 153.5 560.472 153.5H540.347C539.43 153.5 538.722 153.292 538.222 152.875C537.722 152.375 537.263 151.708 536.847 150.875C536.013 149.042 535.055 147.708 533.972 146.875C532.888 145.958 531.43 145.5 529.597 145.5C527.013 145.5 525.097 146.417 523.847 148.25C522.597 150 521.93 152.625 521.847 156.125C521.68 159.625 521.68 162.583 521.847 165C522.013 168.583 522.68 171.25 523.847 173C525.097 174.667 527.013 175.5 529.597 175.5C531.68 175.5 533.222 175.083 534.222 174.25C535.222 173.333 536.097 171.958 536.847 170.125C537.18 169.292 537.597 168.667 538.097 168.25C538.68 167.75 539.43 167.5 540.347 167.5H560.472C561.305 167.5 562.055 167.833 562.722 168.5C563.472 169.167 563.805 169.958 563.722 170.875C563.638 172.042 563.18 173.625 562.347 175.625C561.597 177.542 560.388 179.583 558.722 181.75C557.138 183.833 555.013 185.833 552.347 187.75C549.68 189.667 546.43 191.25 542.597 192.5C538.763 193.667 534.263 194.25 529.097 194.25Z" fill="white"/>
</g>
<path d="M144.8 163.909C144.8 158.412 142.61 153.139 138.709 149.252C134.809 145.366 129.52 143.183 124.005 143.182C118.136 143.205 112.503 145.488 108.283 149.553L102.438 155.377C101.423 156.389 99.7769 156.389 98.7615 155.377C97.7462 154.365 97.7462 152.725 98.7615 151.714L104.637 145.859L105.66 144.918C110.72 140.493 117.228 138.025 123.99 138H124L125.29 138.033C131.716 138.351 137.814 141.033 142.385 145.588C147.261 150.447 150 157.038 150 163.909C150 165.34 148.836 166.5 147.4 166.5C145.964 166.5 144.8 165.34 144.8 163.909Z" fill="#0F7EBD"/>
<path d="M98 140.571C98 139.151 99.1513 138 100.571 138C101.992 138 103.143 139.151 103.143 140.571V150.857H113.429C114.849 150.857 116 152.008 116 153.429C116 154.849 114.849 156 113.429 156H100.571C99.1513 156 98 154.849 98 153.429V140.571Z" fill="#0F7EBD"/>
<path d="M98 164.091C98 162.66 99.1641 161.5 100.6 161.5C102.036 161.5 103.2 162.66 103.2 164.091C103.2 169.588 105.39 174.861 109.291 178.748C113.19 182.634 118.479 184.814 123.992 184.816C129.862 184.793 135.497 182.513 139.717 178.447L145.562 172.623C146.577 171.611 148.223 171.611 149.238 172.623C150.254 173.635 150.254 175.275 149.238 176.286L143.363 182.141L142.34 183.082C137.28 187.507 130.773 189.975 124.01 190H124C117.104 190 110.491 187.271 105.615 182.412C100.739 177.553 98 170.962 98 164.091Z" fill="#0F7EBD"/>
<path d="M144.857 187.429V177.143H134.571C133.151 177.143 132 175.992 132 174.571C132 173.151 133.151 172 134.571 172H147.429C148.849 172 150 173.151 150 174.571V187.429C150 188.849 148.849 190 147.429 190C146.008 190 144.857 188.849 144.857 187.429Z" fill="#0F7EBD"/>
</g>
<defs>
<filter id="filter0_d_245_153" x="-18" y="36" width="283.051" height="228" filterUnits="userSpaceOnUse" color-interpolation-filters="sRGB">
<feFlood flood-opacity="0" result="BackgroundImageFix"/>
<feColorMatrix in="SourceAlpha" type="matrix" values="0 0 0 0 0 0 0 0 0 0 0 0 0 0 0 0 0 0 127 0" result="hardAlpha"/>
<feOffset/>
<feGaussianBlur stdDeviation="25"/>
<feComposite in2="hardAlpha" operator="out"/>
<feColorMatrix type="matrix" values="0 0 0 0 0 0 0 0 0 0 0 0 0 0 0 0 0 0 1 0"/>
<feBlend mode="normal" in2="BackgroundImageFix" result="effect1_dropShadow_245_153"/>
<feBlend mode="normal" in="SourceGraphic" in2="effect1_dropShadow_245_153" result="shape"/>
</filter>
<filter id="filter1_d_245_153" x="240.2" y="104.25" width="333.646" height="132.5" filterUnits="userSpaceOnUse" color-interpolation-filters="sRGB">
<feFlood flood-opacity="0" result="BackgroundImageFix"/>
<feColorMatrix in="SourceAlpha" type="matrix" values="0 0 0 0 0 0 0 0 0 0 0 0 0 0 0 0 0 0 127 0" result="hardAlpha"/>
<feOffset dy="10"/>
<feGaussianBlur stdDeviation="5"/>
<feComposite in2="hardAlpha" operator="out"/>
<feColorMatrix type="matrix" values="0 0 0 0 0 0 0 0 0 0 0 0 0 0 0 0 0 0 0.5 0"/>
<feBlend mode="normal" in2="BackgroundImageFix" result="effect1_dropShadow_245_153"/>
<feBlend mode="normal" in="SourceGraphic" in2="effect1_dropShadow_245_153" result="shape"/>
</filter>
<clipPath id="clip0_245_153">
<rect width="600" height="300" fill="white"/>
</clipPath>
</defs>
</svg>
