<svg width="312" height="218" viewBox="0 0 312 218" fill="none" xmlns="http://www.w3.org/2000/svg">
<path d="M155.88 0C194.829 0.000212318 226.786 30.1084 229.987 68.4414H237.391C278.466 68.4414 311.759 101.922 311.759 143.221C311.759 184.52 278.466 218 237.391 218H74.3682C33.2934 218 0 184.52 0 143.221C0.000123011 101.922 33.2935 68.4415 74.3682 68.4414H81.7715C84.9733 30.1082 116.931 0 155.88 0ZM155.88 10C122.221 10 94.5136 36.0335 91.7373 69.2744L90.9717 78.4414H74.3682C38.8684 78.4415 10.0001 107.392 10 143.221C10 179.049 38.8683 208 74.3682 208H237.391C272.891 208 301.759 179.049 301.759 143.221C301.759 107.392 272.891 78.4414 237.391 78.4414H220.788L220.023 69.2744C217.246 36.0337 189.539 10.0002 155.88 10Z" fill="#0F7EBD"/>
<path d="M109.5 180V172.5L149.85 72.4502H162L202.2 172.5V180H109.5ZM124.95 167.85H186.6L161.55 102.45C161.25 101.65 160.7 100.2 159.9 98.1002C159.1 96.0002 158.3 93.8502 157.5 91.6502C156.8 89.3502 156.25 87.6002 155.85 86.4002C155.35 88.4002 154.75 90.4502 154.05 92.5502C153.45 94.5502 152.8 96.4002 152.1 98.1002C151.5 99.8002 151 101.25 150.6 102.45L124.95 167.85Z" fill="#0F7EBD"/>
</svg>
